{"title":"GI Joe - The Rise of Cobra (HD 720p).m4v","uid":8052544,"size":5472911726,"categoryP":"video","categoryS":"hd___movies","magnet":"?xt=urn:btih:9ae099dff00c771130b66c22d3e0247faa7b13de&amp;dn=GI+Joe+-+The+Rise+of+Cobra+%28HD+720p%29.m4v&amp;tr=udp%3A%2F%2Ftracker.openbittorrent.com%3A80&amp;tr=udp%3A%2F%2Fopen.demonii.com%3A1337&amp;tr=udp%3A%2F%2Ftracker.coppersurfer.tk%3A6969&amp;tr=udp%3A%2F%2Fexodus.desync.com%3A6969","seeders":6,"leechers":0,"uploader":"arctictpb","files":1,"time":1358886086,"description":"General\nComplete name                            : GI Joe - The Rise of Cobra (HD 720p).m4v\nFormat                                   : MPEG-4\nFormat profile                           : Base Media / Version 2\nCodec ID                                 : mp42\nFile size                                : 5.10 GiB\nDuration                                 : 1h 57mn\nOverall bit rate mode                    : Variable\nOverall bit rate                         : 6 184 Kbps\nRecorded date                            : 2010\nEncoded date                             : UTC 2012-05-21 06:49:20\nTagged date                              : UTC 2012-05-21 07:56:26\nWriting application                      : HandBrake 0.9.6 2012022800\nCover                                    : Yes\n\nVideo\nID                                       : 1\nFormat                                   : AVC\nFormat/Info                              : Advanced Video Codec\nFormat profile                           : &lt;a class=&quot;__cf_email__&quot; href=&quot;/cdn-cgi/l/email-protection&quot; data-cfemail=&quot;276f4e404f676b140916&quot;&gt;[email&amp;#160;protected]&lt;/a&gt;&lt;script cf-hash='f9e31' type=&quot;text/javascript&quot;&gt;\n/* &lt;![CDATA[ */!function(){try{var t=&quot;currentScript&quot;in document?document.currentScript:function(){for(var t=document.getElementsByTagName(&quot;script&quot;),e=t.length;e--;)if(t[e].getAttribute(&quot;cf-hash&quot;))return t[e]}();if(t&amp;&amp;t.previousSibling){var e,r,n,i,c=t.previousSibling,a=c.getAttribute(&quot;data-cfemail&quot;);if(a){for(e=&quot;&quot;,r=parseInt(a.substr(0,2),16),n=2;a.length-n;n+=2)i=parseInt(a.substr(n,2),16)^r,e+=String.fromCharCode(i);e=document.createTextNode(e),c.parentNode.replaceChild(e,c)}}}catch(u){}}();/* ]]&gt; */&lt;/script&gt;\nFormat settings, CABAC                   : Yes\nFormat settings, ReFrames                : 4 frames\nCodec ID                                 : avc1\nCodec ID/Info                            : Advanced Video Coding\nDuration                                 : 1h 57mn\nBit rate mode                            : Variable\nBit rate                                 : 5 374 Kbps\nWidth                                    : 1 280 pixels\nHeight                                   : 528 pixels\nDisplay aspect ratio                     : 2.40:1\nFrame rate mode                          : Variable\nFrame rate                               : 23.976 fps\nMinimum frame rate                       : 23.810 fps\nMaximum frame rate                       : 24.390 fps\nColor space                              : YUV\nChroma subsampling                       : 4:2:0\nBit depth                                : 8 bits\nScan type                                : Progressive\nBits/(Pixel*Frame)                       : 0.332\nStream size                              : 4.43 GiB (87%)\nWriting library                          : x264 core 120\nEncoding settings                        : cabac=1 / ref=3 / deblock=1:0:0 / analyse=0x3:0x113 / me=hex / subme=7 / psy=1 / psy_rd=1.00:0.00 / mixed_ref=1 / me_range=16 / chroma_me=1 / trellis=1 / 8x8dct=1 / cqm=0 / deadzone=21,11 / fast_pskip=1 / chroma_qp_offset=-2 / threads=12 / sliced_threads=0 / nr=0 / decimate=1 / interlaced=0 / bluray_compat=0 / constrained_intra=0 / bframes=3 / b_pyramid=2 / b_adapt=1 / b_bias=0 / direct=1 / weightb=1 / open_gop=0 / weightp=2 / keyint=240 / keyint_min=24 / scenecut=40 / intra_refresh=0 / rc_lookahead=40 / rc=crf / mbtree=1 / crf=18.0 / qcomp=0.60 / qpmin=3 / qpmax=69 / qpstep=4 / ip_ratio=1.40 / aq=1:1.00\nEncoded date                             : UTC 2012-05-21 06:49:20\nTagged date                              : UTC 2012-05-21 07:56:26\nColor primaries                          : BT.709\nTransfer characteristics                 : BT.709\nMatrix coefficients                      : BT.709\n\nAudio #1\nID                                       : 2\nFormat                                   : AAC\nFormat/Info                              : Advanced Audio Codec\nFormat profile                           : LC\nCodec ID                                 : 40\nDuration                                 : 1h 57mn\nBit rate mode                            : Variable\nBit rate                                 : 165 Kbps\nMaximum bit rate                         : 278 Kbps\nChannel(s)                               : 2 channels\nChannel positions                        : Front: L R\nSampling rate                            : 48.0 KHz\nCompression mode                         : Lossy\nDelay relative to video                  : 83ms\nStream size                              : 139 MiB (3%)\nEncoded date                             : UTC 2012-05-21 06:49:20\nTagged date                              : UTC 2012-05-21 07:56:25\n\nAudio #2\nID                                       : 3\nFormat                                   : AC-3\nFormat/Info                              : Audio Coding 3\nMode extension                           : CM (complete main)\nFormat settings, Endianness              : Big\nCodec ID                                 : ac-3\nDuration                                 : 1h 57mn\nBit rate mode                            : Constant\nBit rate                                 : 640 Kbps\nChannel(s)                               : 6 channels\nChannel positions                        : Front: L C R, Side: L R, LFE\nSampling rate                            : 48.0 KHz\nBit depth                                : 16 bits\nCompression mode                         : Lossy\nDelay relative to video                  : 83ms\nStream size                              : 540 MiB (10%)\nEncoded date                             : UTC 2012-05-21 06:49:20\nTagged date                              : UTC 2012-05-21 07:56:25\n\nText\nID                                       : 4\nFormat                                   : Apple text\nCodec ID                                 : text\nDuration                                 : 1h 57mn\nBit rate mode                            : Constant\nBit rate                                 : 1 bps\nStream size                              : 480 Bytes (0%)\nEncoded date                             : UTC 2012-05-21 06:49:20\nTagged date                              : UTC 2012-05-21 07:56:26\n","torrent":{"xt":"urn:btih:9ae099dff00c771130b66c22d3e0247faa7b13de","amp;dn":"GI+Joe+-+The+Rise+of+Cobra+%28HD+720p%29.m4v","amp;tr":["udp%3A%2F%2Ftracker.openbittorrent.com%3A80","udp%3A%2F%2Fopen.demonii.com%3A1337","udp%3A%2F%2Ftracker.coppersurfer.tk%3A6969","udp%3A%2F%2Fexodus.desync.com%3A6969"],"infoHash":"9ae099dff00c771130b66c22d3e0247faa7b13de","infoHashBuffer":{"type":"Buffer","data":[154,224,153,223,240,12,119,17,48,182,108,34,211,224,36,127,170,123,19,222]},"announce":[],"urlList":[]}}